# xmcd
#
# Track frame offsets: 
#        150
#        14367
#        30991
#        44299
#        59853
#        75627
#        87701
#        99509
#        112777
#        126662
#        139988
#        157045
#        183205
#
# Disc length: 4440 seconds
#
# Revision: 0
# Processed by: cddbd v1.4PL0 Copyright (c) Steve Scherf et al.
# Submitted via: ExactAudioCopy v0.95a4
#
DISCID=b011560d
DTITLE=Maxim Turbulenc - Maxici na indianske stezce
DYEAR=2003
DGENRE=Pop-Folk
TTITLE0=Little Big Horn
TTITLE1=John Brown
TTITLE2=Kdyz nas tata hral
TTITLE3=Ved me dal cesto ma
TTITLE4=Rovnou
TTITLE5=Ho Ho Watanay
TTITLE6=Severni vitr
TTITLE7=Zlatokop Tom
TTITLE8=Tisic mil
TTITLE9=Indian
TTITLE10=Ruze z Texasu
TTITLE11=Indianska dymka miru
TTITLE12=Data Track
EXTD=
EXTT0=
EXTT1=
EXTT2=
EXTT3=
EXTT4=
EXTT5=
EXTT6=
EXTT7=
EXTT8=
EXTT9=
EXTT10=
EXTT11=
EXTT12=
PLAYORDER=
